# File created by Blade
# Date/Time:  Wed Sep 24 20:21:23 2014
# Frame Rate: 120.000 fps
#------------------------------------------------------
:FULLY-SPECIFIED
:DEGREES
589
root -7.903870 33.299109 -3.329459 6.688457 19.762258 32.496061
Spine 6.423717 -24.661865 -42.307133
Head -4.988013 -10.767490 28.081807
LeftShoulder 8.025003 -25.086041 29.226019
LeftArm 136.497397 -71.299755 -155.424935
LeftForeArm -12.900668 0.000000 46.462006
LeftHand -14.995368 -0.000000 -33.978252
LeftHandThumb1 -26.253704 0.000000 33.147579
RightShoulder -15.241394 21.018097 -28.978272
RightArm -10.873803 3.767657 13.806893
RightForeArm -22.156177 -0.000000 10.068938
RightHand -7.585028 -0.000000 9.506086
RightHandThumb1 -24.326973 -0.000000 -32.862282
LeftUpLeg -148.999883 33.431895 -31.050457
LeftLeg 4.860955 -0.000000 -0.000000
LeftFoot 41.426029 22.934255 -9.883725
LeftToeBase 12.459735 -0.000000 -0.000000
RightUpLeg -3.817880 -4.168250 -22.030404
RightLeg 30.561601 -0.000000 -0.000000
RightFoot -19.146052 -31.651543 -8.344579
RightToeBase -0.431853 -0.000000 0.000000
590
root -7.896712 33.295792 -3.317307 6.664321 19.764167 32.522967
Spine 6.391054 -24.695581 -42.285695
Head -4.953951 -10.726824 28.008666
LeftShoulder 8.017452 -25.103810 29.204086
LeftArm 136.550124 -71.362628 -155.462857
LeftForeArm -12.866251 -0.000000 46.432203
LeftHand -14.939204 -0.000000 -33.942166
LeftHandThumb1 -26.253704 0.000000 33.147579
RightShoulder -15.247373 21.033485 -28.979381
RightArm -10.853707 3.687222 13.769052
RightForeArm -22.234443 -0.000000 10.093651
RightHand -7.641575 -0.000000 9.360966
RightHandThumb1 -24.326973 -0.000000 -32.862282
LeftUpLeg -149.011284 33.440517 -31.081242
LeftLeg 4.838335 -0.000000 -0.000000
LeftFoot 41.478729 22.887202 -9.804436
LeftToeBase 12.201526 -0.000000 -0.000000
RightUpLeg -3.749295 -4.119520 -22.051412
RightLeg 30.545390 -0.000000 -0.000000
RightFoot -19.166132 -31.729709 -8.358049
RightToeBase -0.436381 -0.000000 0.000000
591
root -7.886841 33.293272 -3.302258 6.599333 19.794842 32.557400
Spine 6.427665 -24.713472 -42.289331
Head -4.941041 -10.678066 27.972280
LeftShoulder 7.999829 -25.098064 29.196929
LeftArm 136.644382 -71.399584 -155.543698
LeftForeArm -12.957736 -0.000000 46.399430
LeftHand -14.989067 -0.000000 -33.888657
LeftHandThumb1 -26.253704 0.000000 33.147579
RightShoulder -15.260739 21.036839 -28.975312
RightArm -10.816317 3.638643 13.720384
RightForeArm -22.254134 0.000000 10.087188
RightHand -7.623864 -0.000000 9.413184
RightHandThumb1 -24.326973 -0.000000 -32.862282
LeftUpLeg -148.989023 33.422353 -31.097923
LeftLeg 4.843471 -0.000000 -0.000000
LeftFoot 41.479408 22.907298 -9.770564
LeftToeBase 11.996533 -0.000000 -0.000000
RightUpLeg -3.614603 -4.080191 -22.088219
RightLeg 30.526504 -0.000000 -0.000000
RightFoot -19.225289 -31.776933 -8.333379
RightToeBase -0.366520 -0.000000 0.000000
592
root -7.878089 33.290472 -3.289519 6.554510 19.799483 32.571186
Spine 6.415238 -24.736602 -42.242920
Head -4.913079 -10.600158 27.935310
LeftShoulder 7.977446 -25.040645 29.163123
LeftArm 136.843388 -71.348325 -155.707297
LeftForeArm -12.968664 -0.000000 46.365244
LeftHand -15.009165 -0.000000 -33.884945
LeftHandThumb1 -26.253704 0.000000 33.147579
RightShoulder -15.263183 21.049648 -28.977142
RightArm -10.806840 3.572880 13.688027
RightForeArm -22.301999 -0.000000 10.118653
RightHand -7.685469 -0.000000 9.308720
RightHandThumb1 -24.326973 -0.000000 -32.862282
LeftUpLeg -148.999711 33.425294 -31.107252
LeftLeg 4.840759 -0.000000 -0.000000
LeftFoot 41.458675 22.940433 -9.776469
LeftToeBase 11.935744 -0.000000 -0.000000
RightUpLeg -3.542526 -4.032629 -22.106454
RightLeg 30.544015 -0.000000 -0.000000
RightFoot -19.264192 -31.808134 -8.307395
RightToeBase -0.384546 -0.000000 0.000000
593
root -7.868753 33.287843 -3.279359 6.518828 19.800220 32.576111
Spine 6.390333 -24.754044 -42.170654
Head -4.874507 -10.524110 27.895045
LeftShoulder 7.946005 -24.959431 29.131951
LeftArm 137.010464 -71.289450 -155.840371
LeftForeArm -13.005634 -0.000000 46.312449
LeftHand -15.034400 -0.000000 -33.889225
LeftHandThumb1 -26.253704 0.000000 33.147579
RightShoulder -15.269844 21.060695 -28.995349
RightArm -10.829562 3.498444 13.668457
RightForeArm -22.247152 0.000000 10.191305
RightHand -7.766595 -0.000000 9.177135
RightHandThumb1 -24.326973 -0.000000 -32.862282
LeftUpLeg -149.025255 33.436924 -31.109229
LeftLeg 4.841611 -0.000000 -0.000000
LeftFoot 41.482289 22.957762 -9.793223
LeftToeBase 12.028660 -0.000000 -0.000000
RightUpLeg -3.503155 -3.962237 -22.116178
RightLeg 30.586406 -0.000000 -0.000000
RightFoot -19.301874 -31.844367 -8.253894
RightToeBase -0.361997 -0.000000 0.000000
594
root -7.860617 33.284849 -3.269118 6.490169 19.787661 32.568110
Spine 6.346552 -24.784552 -42.089756
Head -4.817045 -10.445865 27.877886
LeftShoulder 7.911150 -24.960342 29.101640
LeftArm 137.021706 -71.334239 -155.827889
LeftForeArm -13.090429 0.000000 46.291329
LeftHand -15.043435 -0.000000 -33.878733
LeftHandThumb1 -26.253704 0.000000 33.147579
RightShoulder -15.264540 21.069718 -29.024144
RightArm -10.841288 3.547318 13.677700
RightForeArm -22.278317 -0.000000 10.222000
RightHand -7.819596 -0.000000 9.034817
RightHandThumb1 -24.326973 -0.000000 -32.862282
LeftUpLeg -149.084484 33.452699 -31.117569
LeftLeg 4.857283 -0.000000 -0.000000
LeftFoot 41.488419 23.003725 -9.898795
LeftToeBase 12.129856 -0.000000 -0.000000
RightUpLeg -3.488613 -3.910947 -22.117151
RightLeg 30.640950 -0.000000 -0.000000
RightFoot -19.360284 -31.838208 -8.158040
RightToeBase -0.372703 -0.000000 0.000000
595
root -7.850347 33.283942 -3.259465 6.460777 19.771242 32.591118
Spine 6.311853 -24.794870 -42.050691
Head -4.739090 -10.404648 27.874558
LeftShoulder 7.904326 -24.953427 29.058249
LeftArm 137.067879 -71.366518 -155.818209
LeftForeArm -13.142122 -0.000000 46.258403
LeftHand -15.034875 -0.000000 -33.911084
LeftHandThumb1 -26.253704 0.000000 33.147579
RightShoulder -15.275159 21.070925 -29.029516
RightArm -10.813247 3.512732 13.686218
RightForeArm -22.255713 -0.000000 10.174342
RightHand -7.689787 -0.000000 9.061194
RightHandThumb1 -24.326973 -0.000000 -32.862282
LeftUpLeg -149.099403 33.509745 -31.110208
LeftLeg 4.846601 -0.000000 -0.000000
LeftFoot 41.433531 23.019858 -9.980924
LeftToeBase 12.521300 -0.000000 -0.000000
RightUpLeg -3.474752 -3.870790 -22.158652
RightLeg 30.723799 -0.000000 -0.000000
RightFoot -19.417813 -31.805010 -8.064796
RightToeBase -0.412007 -0.000000 0.000000
596
root -7.840711 33.282352 -3.249660 6.433630 19.755399 32.610272
Spine 6.271369 -24.800892 -42.014301
Head -4.646768 -10.408777 27.886490
LeftShoulder 7.886313 -24.960149 29.024847
LeftArm 137.011421 -71.415452 -155.713368
LeftForeArm -13.194716 -0.000000 46.222704
LeftHand -15.046212 -0.000000 -33.938763
LeftHandThumb1 -26.253704 0.000000 33.147579
RightShoulder -15.285679 21.043632 -29.023544
RightArm -10.799113 3.564135 13.692889
RightForeArm -22.354798 -0.000000 10.211731
RightHand -7.831360 0.000000 9.067468
RightHandThumb1 -24.326973 -0.000000 -32.862282
LeftUpLeg -149.148870 33.523467 -31.129966
LeftLeg 4.862624 -0.000000 -0.000000
LeftFoot 41.491324 22.922029 -9.895923
LeftToeBase 12.137579 -0.000000 -0.000000
RightUpLeg -3.464558 -3.860141 -22.193872
RightLeg 30.797739 -0.000000 -0.000000
RightFoot -19.452152 -31.793452 -8.036079
RightToeBase -0.388050 -0.000000 0.000000
597
root -7.831228 33.281783 -3.240846 6.409088 19.733401 32.640122
Spine 6.216840 -24.807288 -41.983375
Head -4.497939 -10.415121 27.853780
LeftShoulder 7.892603 -24.943513 28.969547
LeftArm 136.988779 -71.482839 -155.621625
LeftForeArm -13.227593 -0.000000 46.189013
LeftHand -14.973817 -0.000000 -33.928023
LeftHandThumb1 -26.253704 0.000000 33.147579
RightShoulder -15.287054 21.055407 -28.989877
RightArm -10.760696 3.513786 13.672851
RightForeArm -22.299601 -0.000000 10.140126
RightHand -7.616686 -0.000000 9.134395
RightHandThumb1 -24.326973 -0.000000 -32.862282
LeftUpLeg -149.185531 33.563517 -31.147218
LeftLeg 4.848951 -0.000000 -0.000000
LeftFoot 41.475373 22.970827 -9.912922
LeftToeBase 12.020952 -0.000000 -0.000000
RightUpLeg -3.452774 -3.839227 -22.238512
RightLeg 30.862874 -0.000000 -0.000000
RightFoot -19.459569 -31.806711 -8.053631
RightToeBase -0.378727 -0.000000 0.000000
598
root -7.821959 33.280083 -3.234264 6.409826 19.711384 32.684716
Spine 6.160833 -24.825554 -41.976762
Head -4.376799 -10.404899 27.866297
LeftShoulder 7.878161 -24.949920 28.952357
LeftArm 136.917492 -71.554326 -155.510262
LeftForeArm -13.252029 -0.000000 46.196138
LeftHand -15.002967 -0.000000 -33.890351
LeftHandThumb1 -26.253704 0.000000 33.147579
RightShoulder -15.300746 21.054957 -29.005140
RightArm -10.773703 3.486836 13.737182
RightForeArm -22.325590 -0.000000 10.169267
RightHand -7.728932 -0.000000 9.088849
RightHandThumb1 -24.326973 -0.000000 -32.862282
LeftUpLeg -149.234625 33.604049 -31.174414
LeftLeg 4.857121 -0.000000 -0.000000
LeftFoot 41.457650 22.954116 -9.902677
LeftToeBase 11.789243 -0.000000 -0.000000
RightUpLeg -3.463857 -3.842133 -22.297023
RightLeg 30.933331 -0.000000 -0.000000
RightFoot -19.482980 -31.818625 -8.061962
RightToeBase -0.400493 -0.000000 0.000000
599
root -7.814550 33.277765 -3.222235 6.382926 19.675640 32.702969
Spine 6.093491 -24.807832 -41.944384
Head -4.229322 -10.409513 27.842170
LeftShoulder 7.892099 -24.945294 28.934320
LeftArm 136.884233 -71.621659 -155.452285
LeftForeArm -13.276334 -0.000000 46.227733
LeftHand -14.991636 -0.000000 -33.763690
LeftHandThumb1 -26.253704 0.000000 33.147579
RightShoulder -15.327036 21.042280 -28.990055
RightArm -10.741297 3.491145 13.769650
RightForeArm -22.403081 -0.000000 10.136654
RightHand -7.780665 -0.000000 9.083446
RightHandThumb1 -24.326973 -0.000000 -32.862282
LeftUpLeg -149.306494 33.648729 -31.203801
LeftLeg 4.876215 -0.000000 -0.000000
LeftFoot 41.423381 22.954913 -9.937355
LeftToeBase 12.043990 -0.000000 -0.000000
RightUpLeg -3.443045 -3.799061 -22.317396
RightLeg 30.972739 -0.000000 -0.000000
RightFoot -19.490482 -31.868853 -8.090134
RightToeBase -0.404604 -0.000000 0.000000
600
root -7.804969 33.275816 -3.215386 6.386017 19.663239 32.759560
Spine 6.040238 -24.820954 -41.953654
Head -4.073740 -10.375214 27.832420
LeftShoulder 7.896345 -25.009930 28.935993
LeftArm 136.786143 -71.736688 -155.354208
LeftForeArm -13.328209 -0.000000 46.236950
LeftHand -14.959698 0.000000 -33.733441
LeftHandThumb1 -26.253704 0.000000 33.147579
RightShoulder -15.359255 21.122367 -29.010293
RightArm -10.765287 3.377960 13.820530
RightForeArm -22.373689 -0.000000 10.129755
RightHand -7.723399 -0.000000 9.092985
RightHandThumb1 -24.326973 -0.000000 -32.862282
LeftUpLeg -149.324035 33.710003 -31.213160
LeftLeg 4.860556 -0.000000 -0.000000
LeftFoot 41.361263 22.975450 -9.973305
LeftToeBase 12.286058 -0.000000 -0.000000
RightUpLeg -3.431160 -3.795362 -22.381307
RightLeg 31.013386 -0.000000 -0.000000
RightFoot -19.533144 -31.896903 -8.091657
RightToeBase -0.383961 -0.000000 0.000000
